<?xml version="1.0" encoding="utf-8"?>
<!-- Generator: Adobe Illustrator 26.2.1, SVG Export Plug-In . SVG Version: 6.00 Build 0)  -->
<svg version="1.1" id="Layer_1" xmlns="http://www.w3.org/2000/svg" xmlns:xlink="http://www.w3.org/1999/xlink" x="0px" y="0px"
	 viewBox="0 0 5000 5000" style="enable-background:new 0 0 5000 5000;" xml:space="preserve">
<style type="text/css">
	.st0{clip-path:url(#SVGID_00000171714331776300171930000003571440070592754564_);}
	.st1{fill:#393E46;}
	.st2{clip-path:url(#SVGID_00000072262297926911635070000004677175461297251744_);}
	.st3{fill:#0284C7;}
	.st4{clip-path:url(#SVGID_00000096056276885244092530000008737387834423159427_);}
	.st5{fill:#38BDF8;}
</style>
<g>
	<defs>
		<rect id="SVGID_1_" x="521.9" y="682.7" width="2375.4" height="2748"/>
	</defs>
	<clipPath id="SVGID_00000074407650349563693800000009179477242462278331_">
		<use xlink:href="#SVGID_1_"  style="overflow:visible;"/>
	</clipPath>
	<g style="clip-path:url(#SVGID_00000074407650349563693800000009179477242462278331_);">
		<path class="st1" d="M1462.9,866.3c-328.6-328.6-876.1-126-935.5,312.3c-5.6,41.1,9.1,82.3,39,111.1
			C858.6,1570.7,2495,3168.2,2205,3449.4l530.7-530.7c6.4-6.4,12.6-12.9,18.7-19.6c6.1-6.7,11.9-13.5,17.7-20.5
			c5.7-7,11.3-14.1,16.7-21.3c5.4-7.2,10.6-14.6,15.6-22.1c5-7.5,9.8-15.1,14.5-22.9c4.6-7.7,9.1-15.6,13.3-23.5
			c4.2-8,8.3-16,12.2-24.2c3.9-8.2,7.5-16.4,11-24.7c3.4-8.3,6.7-16.8,9.7-25.2c3-8.5,5.9-17.1,8.5-25.7c2.6-8.6,5-17.3,7.2-26.1
			c2.2-8.8,4.2-17.6,5.9-26.4c1.8-8.8,3.3-17.7,4.6-26.7c1.3-8.9,2.4-17.9,3.3-26.9c0.9-9,1.5-18,2-27c0.4-9,0.7-18,0.7-27.1
			c0-9-0.2-18-0.7-27c-0.4-9-1.1-18-2-27c-0.9-9-2-17.9-3.3-26.8c-1.3-8.9-2.9-17.8-4.6-26.7c-1.8-8.8-3.7-17.6-5.9-26.4
			c-2.2-8.8-4.6-17.4-7.2-26.1c-2.6-8.6-5.4-17.2-8.5-25.7c-3-8.5-6.3-16.9-9.7-25.2c-3.5-8.3-7.1-16.6-11-24.7
			c-3.9-8.2-7.9-16.2-12.2-24.2c-4.3-8-8.7-15.8-13.3-23.5c-4.6-7.7-9.5-15.4-14.5-22.9c-5-7.5-10.2-14.9-15.6-22.1
			c-5.4-7.2-10.9-14.4-16.7-21.3c-5.7-7-11.6-13.8-17.7-20.5c-6.1-6.7-12.3-13.2-18.7-19.6L1462.9,866.3z"/>
	</g>
</g>
<g>
	<defs>
		<rect id="SVGID_00000070076833508281770290000016684647246050468008_" x="2040" y="717.3" width="2437.9" height="3585.3"/>
	</defs>
	<clipPath id="SVGID_00000103259554967468599750000012424584062897569709_">
		<use xlink:href="#SVGID_00000070076833508281770290000016684647246050468008_"  style="overflow:visible;"/>
	</clipPath>
	<g style="clip-path:url(#SVGID_00000103259554967468599750000012424584062897569709_);">
		<path class="st3" d="M4316.5,2121.1L3044.8,849.4c-341.4-341.6-1251.3,54.5-939.9,366l914.5,914.7c6.4,6.4,12.6,12.9,18.7,19.6
			c6.1,6.7,12,13.5,17.7,20.5c5.7,7,11.3,14.1,16.7,21.3c5.4,7.2,10.6,14.6,15.6,22.1c5,7.5,9.8,15.1,14.5,22.9
			c4.6,7.7,9.1,15.6,13.3,23.5c4.3,8,8.3,16,12.2,24.2c3.9,8.2,7.5,16.4,11,24.7s6.7,16.8,9.7,25.2c3,8.5,5.9,17.1,8.5,25.7
			c2.6,8.6,5,17.3,7.2,26.1s4.2,17.6,5.9,26.4c1.8,8.8,3.3,17.7,4.6,26.7c1.3,8.9,2.4,17.9,3.3,26.8c0.9,9,1.5,18,2,27
			c0.4,9,0.7,18,0.7,27c0,9-0.2,18-0.7,27c-0.4,9-1.1,18-2,27s-2,17.9-3.3,26.8c-1.3,8.9-2.9,17.8-4.6,26.7
			c-1.8,8.8-3.7,17.6-5.9,26.4s-4.6,17.4-7.2,26.1c-2.6,8.6-5.5,17.2-8.5,25.7c-3,8.5-6.3,16.9-9.7,25.2c-3.5,8.3-7.1,16.6-11,24.7
			c-3.9,8.2-7.9,16.2-12.2,24.2c-4.3,8-8.7,15.8-13.3,23.5c-4.6,7.7-9.5,15.3-14.5,22.8c-5,7.5-10.2,14.9-15.6,22.1
			c-5.4,7.2-10.9,14.3-16.7,21.3c-5.7,7-11.6,13.8-17.7,20.5c-6.1,6.7-12.3,13.2-18.7,19.6l-913.9,914.2
			c-278.6,278.3,601.3,688.9,939.3,351L4316.5,2903c6.4-6.4,12.7-12.9,18.8-19.6c6.1-6.7,12-13.5,17.8-20.5
			c5.8-7,11.3-14.1,16.8-21.4c5.4-7.3,10.6-14.6,15.7-22.2s9.9-15.2,14.6-22.9c4.7-7.8,9.1-15.6,13.4-23.6c4.3-8,8.4-16.1,12.2-24.2
			c3.9-8.2,7.6-16.4,11-24.8c3.5-8.4,6.8-16.8,9.8-25.3c3.1-8.5,5.9-17.1,8.5-25.8c2.6-8.7,5.1-17.4,7.3-26.2
			c2.2-8.8,4.2-17.6,6-26.5c1.8-8.9,3.3-17.8,4.7-26.8s2.4-17.9,3.3-27s1.6-18,2-27.1c0.4-9,0.7-18.1,0.7-27.1
			c0-9.1-0.2-18.1-0.7-27.2c-0.4-9-1.1-18.1-2-27.1c-0.9-9-2-18-3.3-27c-1.3-9-2.9-17.9-4.7-26.8c-1.8-8.9-3.8-17.7-6-26.5
			c-2.2-8.8-4.6-17.5-7.3-26.2c-2.6-8.7-5.5-17.3-8.5-25.8c-3.1-8.5-6.3-17-9.8-25.3c-3.5-8.4-7.2-16.6-11-24.8
			c-3.9-8.2-8-16.3-12.2-24.2c-4.3-8-8.8-15.8-13.4-23.6c-4.7-7.8-9.5-15.4-14.6-22.9c-5-7.5-10.3-14.9-15.7-22.2
			c-5.4-7.3-11-14.4-16.8-21.4c-5.8-7-11.7-13.8-17.8-20.5C4329.2,2134,4322.9,2127.4,4316.5,2121.1z"/>
	</g>
</g>
<g>
	<defs>
		<rect id="SVGID_00000159438716108274862390000005500295837389139586_" x="2040" y="717.3" width="2437.9" height="2694.7"/>
	</defs>
	<clipPath id="SVGID_00000072969541580845598530000001908473405718616456_">
		<use xlink:href="#SVGID_00000159438716108274862390000005500295837389139586_"  style="overflow:visible;"/>
	</clipPath>
	<g style="clip-path:url(#SVGID_00000072969541580845598530000001908473405718616456_);">
		<path class="st5" d="M4316.5,2121.1L3044.8,849.4c-341.4-341.6-1251.3,54.5-939.9,366l914.5,914.7c10.9,10.9,21.4,22.3,31.4,34.1
			c10,11.8,19.4,24,28.4,36.6c8.9,12.6,17.3,25.6,25.2,38.9c7.9,13.3,15.1,26.9,21.8,40.9c6.7,13.9,12.8,28.1,18.3,42.6
			c5.5,14.4,10.4,29.1,14.6,44c4.3,14.9,7.9,29.9,10.9,45c3,15.2,5.3,30.4,7.1,45.8c315.1,369.9,577,729.1,631.6,952.9l508.7-508.7
			c6.4-6.4,12.6-12.9,18.7-19.6c6.1-6.7,12-13.5,17.7-20.5s11.3-14.1,16.7-21.4c5.4-7.3,10.6-14.7,15.6-22.2
			c5-7.5,9.9-15.2,14.5-22.9c4.7-7.8,9.1-15.6,13.4-23.6c4.3-8,8.3-16.1,12.2-24.2c3.9-8.2,7.5-16.4,11-24.8
			c3.5-8.4,6.7-16.8,9.8-25.3c3-8.5,5.9-17.1,8.5-25.8c2.6-8.7,5-17.4,7.2-26.1c2.2-8.8,4.2-17.6,5.9-26.5
			c1.8-8.9,3.3-17.8,4.6-26.7c1.3-8.9,2.4-17.9,3.3-26.9c0.9-9,1.5-18,2-27c0.4-9,0.7-18.1,0.6-27.1c0-9-0.2-18.1-0.7-27.1
			s-1.1-18-2-27c-0.9-9-2-18-3.4-26.9c-1.3-8.9-2.9-17.8-4.7-26.7c-1.8-8.9-3.8-17.7-6-26.4c-2.2-8.8-4.6-17.5-7.3-26.1
			s-5.5-17.2-8.6-25.7c-3.1-8.5-6.3-16.9-9.8-25.3c-3.5-8.3-7.2-16.6-11-24.8c-3.9-8.2-8-16.2-12.2-24.2c-4.3-8-8.8-15.8-13.4-23.6
			c-4.7-7.7-9.5-15.4-14.6-22.9c-5-7.5-10.3-14.9-15.7-22.1c-5.4-7.2-11-14.4-16.7-21.3c-5.8-7-11.7-13.8-17.8-20.5
			C4329.1,2134,4322.9,2127.4,4316.5,2121.1z"/>
	</g>
</g>
</svg>
