<svg xmlns="http://www.w3.org/2000/svg" viewBox="0 0 500 500"><g id="freepik--background-complete--inject-68"><rect x="402.07" y="342.28" width="35.16" height="11.19" transform="translate(839.3 695.75) rotate(180)" style="fill:#ebebeb"></rect><rect x="269.23" y="251.16" width="35.16" height="11.19" transform="translate(573.62 513.51) rotate(180)" style="fill:#ebebeb"></rect><path d="M421.68,367.58l17.7-.29,8.75-.12,8.71,0-.46.45,0-11.19.5.5-17.58-.07-8.79-.08-8.79-.11.24-.24Zm0,0-.23-11.19v-.23h.24l8.79-.11,8.79-.08,17.58-.07h.5v.5l0,11.19V368h-.45L448,368l-8.83-.12Z" style="fill:#ebebeb"></path><path d="M254.5,418l17.7-.3,8.75-.12,8.71,0-.46.46,0-11.19.5.49-17.58-.06-8.79-.09L254.5,407l.24-.23Zm0,0-.24-11.19v-.24h.24l8.79-.11,8.79-.09,17.58-.06h.5v.51L290.11,418v.45h-.45l-8.87,0-8.83-.12Z" style="fill:#ebebeb"></path><path d="M274.11,432.06l17.7-.3,8.75-.12,8.71,0-.46.45,0-11.18.5.49-17.58-.06-8.79-.09-8.79-.11.24-.23Zm0,0-.24-11.19v-.24h.24l8.79-.11,8.79-.09,17.58-.06h.5v.51l0,11.18v.46h-.45l-8.87,0-8.83-.12Z" style="fill:#ebebeb"></path><rect x="293.65" y="406.76" width="35.16" height="11.19" transform="translate(622.45 824.7) rotate(180)" style="fill:#ebebeb"></rect><rect x="43.16" y="356.39" width="35.16" height="11.19" transform="translate(121.48 723.97) rotate(180)" style="fill:#ebebeb"></rect><rect x="62.77" y="49.79" width="35.16" height="11.19" transform="translate(160.7 110.76) rotate(180)" style="fill:#ebebeb"></rect><path d="M43.16,75.09l17.7-.3,8.75-.12,8.71,0-.46.46,0-11.19.5.5-17.58-.07L52,64.24l-8.79-.11.24-.23Zm0,0L42.92,63.9v-.24h.24L52,63.55l8.79-.08,17.58-.07h.5v.5l0,11.19v.45h-.45l-8.87,0-8.83-.12Z" style="fill:#ebebeb"></path><path d="M402.07,61l17.7-.3,8.75-.12,8.71,0-.46.46,0-11.19.5.5-17.58-.07-8.79-.09L402.07,50l.24-.23Zm0,0-.24-11.19v-.24h.24l8.79-.11,8.79-.08,17.58-.07h.5v.5L437.68,61v.45h-.45l-8.87,0-8.83-.12Z" style="fill:#ebebeb"></path><path d="M299.65,291.5V462.21H402.84V291.5Zm93.82,107.71H309V354.77h84.45Zm0-55H309V299.75h84.45Z" style="fill:#dbdbdb"></path><rect x="402.84" y="291.5" width="46.66" height="170.7" style="fill:#ebebeb"></rect><rect x="309.02" y="299.75" width="20.07" height="44.44" style="fill:#ebebeb"></rect><path d="M393.72,451.75H309.29V408.88h84.43Zm-83.93-.5h83.43V409.38H309.79Z" style="fill:#ebebeb"></path><rect x="343.17" y="421.05" width="16.67" height="6.09" style="fill:#ebebeb"></rect><rect x="309.02" y="354.78" width="20.07" height="44.44" style="fill:#ebebeb"></rect><rect x="354.38" y="371.67" width="40.97" height="14.12" transform="translate(753.59 3.87) rotate(90)" style="fill:#a6a6a6"></rect><rect x="370.44" y="381.15" width="8.84" height="14.12" transform="translate(763.07 13.35) rotate(90)" style="fill:#dbdbdb"></rect><rect x="372.24" y="367" width="5.24" height="14.12" transform="translate(748.92 -0.8) rotate(90)" style="fill:#dbdbdb"></rect><rect x="374.82" y="257.17" width="35.68" height="34.29" style="fill:#ebebeb"></rect><rect x="410.5" y="257.17" width="13.56" height="34.29" style="fill:#c7c7c7"></rect><polygon points="374.81 274.32 410.5 274.32 382.63 275.2 374.81 274.32" style="fill:#c7c7c7"></polygon><polygon points="410.5 287.32 374.81 287.32 402.68 288.2 410.5 287.32" style="fill:#c7c7c7"></polygon><polygon points="374.81 264.73 397.42 264.73 377.32 265.45 374.81 264.73" style="fill:#c7c7c7"></polygon><polygon points="410.5 282.27 387.89 282.27 407.99 282.99 410.5 282.27" style="fill:#c7c7c7"></polygon><polygon points="383.37 260.92 408.87 260.92 404.62 261.35 383.37 260.92" style="fill:#c7c7c7"></polygon><polygon points="378.28 277.99 403.78 277.99 399.53 278.43 378.28 277.99" style="fill:#c7c7c7"></polygon><polygon points="393.96 268 410.5 268 413.45 269.15 393.96 268" style="fill:#ebebeb"></polygon><polygon points="370.26 268 386.8 268 389.75 269.15 370.26 268" style="fill:#ebebeb"></polygon><polygon points="391.48 283.41 374.94 283.41 371.99 284.56 391.48 283.41" style="fill:#ebebeb"></polygon><polygon points="410.5 279.5 423.78 279.5 426.73 280.65 410.5 279.5" style="fill:#c7c7c7"></polygon><polygon points="415.13 274.32 425.43 274.32 424.06 273.38 415.13 274.32" style="fill:#c7c7c7"></polygon><rect x="333.64" y="309.9" width="35.68" height="34.29" style="fill:#ebebeb"></rect><rect x="369.32" y="309.9" width="13.56" height="34.29" style="fill:#c7c7c7"></rect><polygon points="333.64 327.05 369.32 327.05 341.46 327.93 333.64 327.05" style="fill:#c7c7c7"></polygon><polygon points="369.32 340.05 333.64 340.05 361.51 340.93 369.32 340.05" style="fill:#c7c7c7"></polygon><polygon points="333.64 317.46 356.24 317.46 336.15 318.18 333.64 317.46" style="fill:#c7c7c7"></polygon><polygon points="369.32 335 346.72 335 366.81 335.72 369.32 335" style="fill:#c7c7c7"></polygon><polygon points="342.2 313.65 367.69 313.65 363.44 314.08 342.2 313.65" style="fill:#c7c7c7"></polygon><polygon points="337.11 330.72 362.6 330.72 358.35 331.15 337.11 330.72" style="fill:#c7c7c7"></polygon><polygon points="352.79 320.73 369.32 320.73 372.28 321.88 352.79 320.73" style="fill:#ebebeb"></polygon><polygon points="329.09 320.73 345.62 320.73 348.58 321.88 329.09 320.73" style="fill:#ebebeb"></polygon><polygon points="350.31 336.14 333.77 336.14 330.81 337.29 350.31 336.14" style="fill:#ebebeb"></polygon><polygon points="369.32 332.23 382.6 332.23 385.56 333.38 369.32 332.23" style="fill:#c7c7c7"></polygon><polygon points="373.96 327.05 384.26 327.05 382.88 326.11 373.96 327.05" style="fill:#c7c7c7"></polygon><rect x="381.92" y="355.5" width="11.55" height="43.71" style="fill:#ebebeb"></rect><path d="M387.7,364.13a2.41,2.41,0,1,1,2.4-2.41A2.41,2.41,0,0,1,387.7,364.13Z" style="fill:#fff"></path><path d="M387.7,363.1a1.38,1.38,0,1,1,0-2.75,1.38,1.38,0,0,1,0,2.75Z" style="fill:#a6a6a6"></path><rect x="382.38" y="381.23" width="10.63" height="11.55" transform="translate(774.71 -0.69) rotate(90)" style="fill:#fff"></rect><rect x="324.09" y="390.19" width="43.71" height="9.09" style="fill:#c7c7c7"></rect><path d="M359.18,394.73a2.41,2.41,0,1,1,2.4,2.41A2.39,2.39,0,0,1,359.18,394.73Z" style="fill:#fff"></path><path d="M360.21,394.73a1.38,1.38,0,0,1,2.75,0,1.38,1.38,0,1,1-2.75,0Z" style="fill:#a6a6a6"></path><rect x="330.98" y="390.19" width="10.63" height="9.09" transform="translate(672.59 789.46) rotate(180)" style="fill:#fff"></rect></g><g id="freepik--Floor--inject-68"><polygon points="43.34 462.21 95.01 461.97 146.67 461.88 250 461.71 353.33 461.88 404.99 461.97 456.66 462.21 404.99 462.46 353.33 462.54 250 462.71 146.67 462.54 95.01 462.45 43.34 462.21" style="fill:#263238"></polygon></g><g id="freepik--Number--inject-68"><path d="M172.41,208.15s0,0,0,0a10.83,10.83,0,0,0-.83-.83h0a8.33,8.33,0,0,0-.84-.84s0,0,0,0a11,11,0,0,0-.83-.84s0,0,0,0a9.29,9.29,0,0,0-.83-.83s0,0,0,0a8.33,8.33,0,0,0-.84-.84h0a11,11,0,0,0-.83-.84h0a11,11,0,0,0-.84-.83h0a8.33,8.33,0,0,0-.84-.84h0a10.83,10.83,0,0,0-.83-.83s0,0,0,0a13,13,0,0,0-3-2.38v-83.6c0-.44-.22-.67-.22-1.11a2.4,2.4,0,0,0-.22-1.33c0-.23-.22-.67-.22-.89a8,8,0,0,0-.45-1.34,1.66,1.66,0,0,1-.44-.89,5.58,5.58,0,0,0-.89-1.1c-.23-.23-.44-.67-.67-.9l-.89-.89c0-.13-.17-.27-.36-.36l-.44-.44,0,0c0-.14-.17-.27-.37-.36s-.25-.26-.44-.44l0,0c0-.13-.17-.27-.36-.36l-.44-.44,0,0c0-.13-.17-.27-.36-.36l-.44-.44,0,0c0-.14-.17-.27-.36-.36l-.44-.44,0,0c0-.13-.17-.27-.36-.36l-.44-.44-.05,0c0-.13-.17-.27-.36-.36l-.44-.44,0,0c0-.14-.17-.27-.36-.36l-.44-.44-.05-.05c0-.13-.17-.27-.36-.36l-.44-.44-.05,0c0-.14-.17-.28-.36-.37l-.48-.48c0-.22-.44-.44-.67-.44a.21.21,0,0,0-.21-.23c-.45-.21-.68-.44-1.12-.66-.23-.23-.67-.44-1.11-.89-.22,0-.66-.22-.89-.22-.44-.22-1.11-.22-1.33-.45a2.15,2.15,0,0,1-1.12-.21h-3.77a1.39,1.39,0,0,1-.89.21c-.66.23-1.1.23-1.33.45-.44,0-.67.22-.89.67a2.32,2.32,0,0,0-1.33.44c-.22.22-.67.45-.89.66a2.26,2.26,0,0,1-1.11.67,2.78,2.78,0,0,1-.67.89c-.22.23-.22.44-.44.44L49.4,201.14a11.89,11.89,0,0,0,1.1,16.35,8.43,8.43,0,0,0,.85.84,6.83,6.83,0,0,0,.85.85A8.43,8.43,0,0,0,53,220a8.43,8.43,0,0,0,.85.84,6.83,6.83,0,0,0,.85.85,8.43,8.43,0,0,0,.84.85,7.5,7.5,0,0,0,.85.84,6.83,6.83,0,0,0,.85.85,8.43,8.43,0,0,0,.84.85,12.71,12.71,0,0,0,1.74,1.6,10.88,10.88,0,0,0,7.55,2.66h61.51v8.42a12.13,12.13,0,0,0,4,9.12l0,0c.26.29.53.56.81.82l0,0a10.7,10.7,0,0,0,.83.82l0,0q.39.42.81.81l0,0a10.83,10.83,0,0,0,.83.83l0,0q.39.42.81.81l0,0a10.72,10.72,0,0,0,.82.83l0,0c.25.28.53.56.81.82,0,0,0,0,0,0,.26.29.54.56.82.82l0,0q.39.42.81.81s0,0,0,0a12.28,12.28,0,0,0,21.28-8.29V229.37H164a12.16,12.16,0,0,0,8.38-21.22Zm-43.49-47.57v35.9H100Z" style="fill:#38BDF8"></path><path d="M172.41,208.15s0,0,0,0a10.83,10.83,0,0,0-.83-.83h0a8.33,8.33,0,0,0-.84-.84s0,0,0,0a11,11,0,0,0-.83-.84s0,0,0,0a9.29,9.29,0,0,0-.83-.83s0,0,0,0a8.33,8.33,0,0,0-.84-.84h0a11,11,0,0,0-.83-.84h0a11,11,0,0,0-.84-.83h0a8.33,8.33,0,0,0-.84-.84h0a10.83,10.83,0,0,0-.83-.83s0,0,0,0a13,13,0,0,0-3-2.38v-83.6c0-.44-.22-.67-.22-1.11a2.4,2.4,0,0,0-.22-1.33c0-.23-.22-.67-.22-.89a8,8,0,0,0-.45-1.34,1.66,1.66,0,0,1-.44-.89,5.58,5.58,0,0,0-.89-1.1c-.23-.23-.44-.67-.67-.9l-.89-.89c0-.13-.17-.27-.36-.36l-.44-.44,0,0c0-.14-.17-.27-.37-.36s-.25-.26-.44-.44l0,0c0-.13-.17-.27-.36-.36l-.44-.44,0,0c0-.13-.17-.27-.36-.36l-.44-.44,0,0c0-.14-.17-.27-.36-.36l-.44-.44,0,0c0-.13-.17-.27-.36-.36l-.44-.44-.05,0c0-.13-.17-.27-.36-.36l-.44-.44,0,0c0-.14-.17-.27-.36-.36l-.44-.44-.05-.05c0-.13-.17-.27-.36-.36l-.44-.44-.05,0c0-.14-.17-.28-.36-.37l-.48-.48c0-.22-.44-.44-.67-.44a.21.21,0,0,0-.21-.23c-.45-.21-.68-.44-1.12-.66-.23-.23-.67-.44-1.11-.89-.22,0-.66-.22-.89-.22-.44-.22-1.11-.22-1.33-.45a2.15,2.15,0,0,1-1.12-.21h-3.77a1.39,1.39,0,0,1-.89.21c-.66.23-1.1.23-1.33.45-.44,0-.67.22-.89.67a2.32,2.32,0,0,0-1.33.44c-.22.22-.67.45-.89.66a2.26,2.26,0,0,1-1.11.67,2.78,2.78,0,0,1-.67.89c-.22.23-.22.44-.44.44L49.4,201.14a11.89,11.89,0,0,0,1.1,16.35,8.43,8.43,0,0,0,.85.84,6.83,6.83,0,0,0,.85.85A8.43,8.43,0,0,0,53,220a8.43,8.43,0,0,0,.85.84,6.83,6.83,0,0,0,.85.85,8.43,8.43,0,0,0,.84.85,7.5,7.5,0,0,0,.85.84,6.83,6.83,0,0,0,.85.85,8.43,8.43,0,0,0,.84.85,12.71,12.71,0,0,0,1.74,1.6,10.88,10.88,0,0,0,7.55,2.66h61.51v8.42a12.13,12.13,0,0,0,4,9.12l0,0c.26.29.53.56.81.82l0,0a10.7,10.7,0,0,0,.83.82l0,0q.39.42.81.81l0,0a10.83,10.83,0,0,0,.83.83l0,0q.39.42.81.81l0,0a10.72,10.72,0,0,0,.82.83l0,0c.25.28.53.56.81.82,0,0,0,0,0,0,.26.29.54.56.82.82l0,0q.39.42.81.81s0,0,0,0a12.28,12.28,0,0,0,21.28-8.29V229.37H164a12.16,12.16,0,0,0,8.38-21.22Zm-43.49-47.57v35.9H100Z" style="opacity:0.1"></path><path d="M168,208.69a12.23,12.23,0,0,1-12.44,12.22h-2.22v16.88a12.22,12.22,0,0,1-24.44,0V220.91H59a10.89,10.89,0,0,1-7.56-2.66,11.9,11.9,0,0,1-2-17.11L131.58,99c.22,0,.22-.22.44-.44a2.81,2.81,0,0,0,.67-.89A2.34,2.34,0,0,0,133.8,97c.22-.23.67-.45.89-.67a2.42,2.42,0,0,1,1.33-.45c.22-.44.45-.66.89-.66.22-.22.67-.22,1.34-.45a1.32,1.32,0,0,0,.88-.22h3.78a2,2,0,0,0,1.11.22c.22.23.89.23,1.33.45.22,0,.67.22.89.22.45.44.89.67,1.11.89.44.22.67.44,1.11.67a.22.22,0,0,1,.22.22c.23,0,.67.22.67.44l.89.89c.22.22.44.67.66.89a5.39,5.39,0,0,1,.89,1.11,1.72,1.72,0,0,0,.45.89,9,9,0,0,1,.44,1.33c0,.22.22.67.22.89a2.31,2.31,0,0,1,.23,1.33c0,.45.22.67.22,1.11v90.41h2.22A12.37,12.37,0,0,1,168,208.69Zm-39.1-67.08-44.2,54.87h44.2Z" style="fill:#38BDF8"></path><path d="M298,127.64a62.6,62.6,0,0,0-8.7-10.58,3.32,3.32,0,0,0-.38-.37,1.14,1.14,0,0,0-.11-.11,3.31,3.31,0,0,0-.32-.33c-.28-.3-.58-.59-.88-.88,0,0-.05-.06-.08-.07l-.3-.3a1.14,1.14,0,0,0-.11-.11c-.11-.12-.21-.23-.32-.33-.28-.31-.59-.59-.88-.88a.25.25,0,0,0-.08-.07l-.3-.3a1.36,1.36,0,0,0-.12-.12c-.1-.11-.2-.22-.31-.32-.29-.31-.59-.59-.88-.89l-.08-.06-.31-.31a1.14,1.14,0,0,0-.11-.11,3.31,3.31,0,0,0-.32-.33c-.28-.3-.58-.58-.88-.88l-.08-.07a2.83,2.83,0,0,0-.3-.3l-.11-.11c-8.92-9.2-20.56-15.28-33.6-15.28-17.55,0-32,10.43-41.32,24.64-9.77,14.22-14.88,32.67-15.1,53.09.22,20.22,5.33,38.87,15.1,53.09a65.9,65.9,0,0,0,8.6,10.43l.44.43a.17.17,0,0,1,.06.06l.79.79.4.41.44.43a.12.12,0,0,1,.06.06l.79.79c.13.15.27.28.41.42l.44.43.05.05.79.79c.14.15.27.29.41.42l.44.43a.1.1,0,0,1,.05.06c.26.27.54.53.79.79l.41.41.44.43.06.06c.26.27.53.53.79.79,8.78,8.77,20.1,14.65,33.12,14.65,17.1,0,31.76-10.67,41.1-24.66,9.54-14.22,14.88-32.88,14.88-53.09C312.83,160.3,307.49,141.86,298,127.64ZM269,211.58c-6.44,9.55-13.77,13.77-20.65,13.77a20.37,20.37,0,0,1-11.72-4c-.31-.4-.62-.83-.92-1.27-6.22-9.33-10.67-23.54-10.67-39.32,0-16,4.45-30,10.67-39.54,6.67-9.33,14.22-13.77,21.1-13.55A18.6,18.6,0,0,1,268,131.28c.35.48.7.95,1,1.45,6.22,9.55,10.67,23.54,10.67,39.53C279.71,188,275.26,202.25,269,211.58Z" style="fill:#38BDF8"></path><path d="M298,127.64a62.6,62.6,0,0,0-8.7-10.58,3.32,3.32,0,0,0-.38-.37,1.14,1.14,0,0,0-.11-.11,3.31,3.31,0,0,0-.32-.33c-.28-.3-.58-.59-.88-.88,0,0-.05-.06-.08-.07l-.3-.3a1.14,1.14,0,0,0-.11-.11c-.11-.12-.21-.23-.32-.33-.28-.31-.59-.59-.88-.88a.25.25,0,0,0-.08-.07l-.3-.3a1.36,1.36,0,0,0-.12-.12c-.1-.11-.2-.22-.31-.32-.29-.31-.59-.59-.88-.89l-.08-.06-.31-.31a1.14,1.14,0,0,0-.11-.11,3.31,3.31,0,0,0-.32-.33c-.28-.3-.58-.58-.88-.88l-.08-.07a2.83,2.83,0,0,0-.3-.3l-.11-.11c-8.92-9.2-20.56-15.28-33.6-15.28-17.55,0-32,10.43-41.32,24.64-9.77,14.22-14.88,32.67-15.1,53.09.22,20.22,5.33,38.87,15.1,53.09a65.9,65.9,0,0,0,8.6,10.43l.44.43a.17.17,0,0,1,.06.06l.79.79.4.41.44.43a.12.12,0,0,1,.06.06l.79.79c.13.15.27.28.41.42l.44.43.05.05.79.79c.14.15.27.29.41.42l.44.43a.1.1,0,0,1,.05.06c.26.27.54.53.79.79l.41.41.44.43.06.06c.26.27.53.53.79.79,8.78,8.77,20.1,14.65,33.12,14.65,17.1,0,31.76-10.67,41.1-24.66,9.54-14.22,14.88-32.88,14.88-53.09C312.83,160.3,307.49,141.86,298,127.64ZM269,211.58c-6.44,9.55-13.77,13.77-20.65,13.77a20.37,20.37,0,0,1-11.72-4c-.31-.4-.62-.83-.92-1.27-6.22-9.33-10.67-23.54-10.67-39.32,0-16,4.45-30,10.67-39.54,6.67-9.33,14.22-13.77,21.1-13.55A18.6,18.6,0,0,1,268,131.28c.35.48.7.95,1,1.45,6.22,9.55,10.67,23.54,10.67,39.53C279.71,188,275.26,202.25,269,211.58Z" style="opacity:0.1"></path><path d="M192,172.27c.22-20.44,5.33-38.88,15.1-53.09,9.33-14.22,23.77-24.66,41.32-24.66,17.1,0,31.76,10.44,41.09,24.66,9.55,14.21,14.88,32.65,14.88,53.09,0,20.21-5.33,38.87-14.88,53.08-9.33,14-24,24.66-41.09,24.66-17.55,0-32-10.66-41.32-24.66C197.3,211.14,192.19,192.48,192,172.27Zm87.74,0c0-16-4.45-30-10.67-39.54-6.44-9.33-13.77-13.77-20.65-13.55-6.89-.22-14.44,4.22-21.1,13.55-6.22,9.55-10.67,23.54-10.67,39.54,0,15.77,4.45,30,10.67,39.31,6.66,9.55,14.21,13.77,21.1,13.77s14.21-4.22,20.65-13.77C275.26,202.25,279.71,188,279.71,172.27Z" style="fill:#38BDF8"></path><path d="M449.28,208.15s0,0,0,0c-.28-.29-.56-.57-.84-.83h0a11.09,11.09,0,0,0-.84-.84s0,0,0,0c-.27-.29-.55-.58-.83-.84,0,0,0,0,0,0-.27-.29-.56-.57-.84-.83,0,0,0,0,0,0a11.09,11.09,0,0,0-.84-.84h0c-.27-.29-.55-.58-.83-.84h0c-.27-.29-.56-.57-.84-.83h0c-.27-.3-.55-.58-.83-.84h0c-.27-.29-.55-.57-.83-.83,0,0,0,0,0,0a12.3,12.3,0,0,0-3-2.38v-83.6c0-.44-.22-.67-.22-1.11a2.4,2.4,0,0,0-.22-1.33c0-.23-.22-.67-.22-.89a8,8,0,0,0-.45-1.34,1.73,1.73,0,0,1-.44-.89,5.23,5.23,0,0,0-.89-1.1c-.23-.23-.44-.67-.67-.9l-.89-.89c0-.13-.17-.27-.36-.36l-.44-.44,0,0c0-.14-.17-.27-.36-.36l-.45-.44,0,0c0-.13-.17-.27-.36-.36l-.44-.44-.05,0c0-.13-.17-.27-.36-.36l-.44-.44,0,0c0-.14-.17-.27-.36-.36l-.44-.44-.05,0c0-.13-.17-.27-.36-.36l-.44-.44-.05,0c0-.13-.17-.27-.36-.36l-.44-.44,0,0c0-.14-.17-.27-.36-.36l-.44-.44-.05-.05c0-.13-.17-.27-.36-.36l-.44-.44-.05,0c0-.14-.16-.28-.36-.37l-.48-.48c0-.22-.44-.44-.67-.44a.22.22,0,0,0-.22-.23c-.44-.21-.67-.44-1.11-.66-.23-.23-.67-.44-1.11-.89-.22,0-.66-.22-.89-.22-.44-.22-1.1-.22-1.33-.45a2.15,2.15,0,0,1-1.12-.21H416a1.39,1.39,0,0,1-.89.21c-.66.23-1.1.23-1.33.45-.44,0-.66.22-.89.67a2.34,2.34,0,0,0-1.33.44c-.22.22-.67.45-.88.66a2.36,2.36,0,0,1-1.12.67,3.11,3.11,0,0,1-.67.89c-.22.23-.22.44-.44.44L326.26,201.14a11.89,11.89,0,0,0,1.1,16.35,8.43,8.43,0,0,0,.85.84,6.83,6.83,0,0,0,.85.85,101,101,0,0,0,1.69,1.69,6.83,6.83,0,0,0,.85.85,8.43,8.43,0,0,0,.84.85,7.5,7.5,0,0,0,.85.84,6.83,6.83,0,0,0,.85.85,8.43,8.43,0,0,0,.84.85,12.71,12.71,0,0,0,1.74,1.6,10.88,10.88,0,0,0,7.55,2.66h61.51v8.42a12.14,12.14,0,0,0,4,9.12s0,0,0,0a10.72,10.72,0,0,0,.82.83l0,0c.26.28.53.55.82.81,0,0,0,0,0,0,.26.29.54.56.82.82l0,0c.26.29.53.56.81.82l0,0a10.7,10.7,0,0,0,.83.82l0,0q.39.42.81.81l0,0c.26.29.55.57.83.83l0,0q.39.42.81.81l0,0a10.72,10.72,0,0,0,.82.83l0,0a12.27,12.27,0,0,0,21.26-8.3V229.37h2.22a12.16,12.16,0,0,0,8.39-21.22Zm-43.5-47.57v35.9H376.85Z" style="fill:#38BDF8"></path><path d="M449.28,208.15s0,0,0,0c-.28-.29-.56-.57-.84-.83h0a11.09,11.09,0,0,0-.84-.84s0,0,0,0c-.27-.29-.55-.58-.83-.84,0,0,0,0,0,0-.27-.29-.56-.57-.84-.83,0,0,0,0,0,0a11.09,11.09,0,0,0-.84-.84h0c-.27-.29-.55-.58-.83-.84h0c-.27-.29-.56-.57-.84-.83h0c-.27-.3-.55-.58-.83-.84h0c-.27-.29-.55-.57-.83-.83,0,0,0,0,0,0a12.3,12.3,0,0,0-3-2.38v-83.6c0-.44-.22-.67-.22-1.11a2.4,2.4,0,0,0-.22-1.33c0-.23-.22-.67-.22-.89a8,8,0,0,0-.45-1.34,1.73,1.73,0,0,1-.44-.89,5.23,5.23,0,0,0-.89-1.1c-.23-.23-.44-.67-.67-.9l-.89-.89c0-.13-.17-.27-.36-.36l-.44-.44,0,0c0-.14-.17-.27-.36-.36l-.45-.44,0,0c0-.13-.17-.27-.36-.36l-.44-.44-.05,0c0-.13-.17-.27-.36-.36l-.44-.44,0,0c0-.14-.17-.27-.36-.36l-.44-.44-.05,0c0-.13-.17-.27-.36-.36l-.44-.44-.05,0c0-.13-.17-.27-.36-.36l-.44-.44,0,0c0-.14-.17-.27-.36-.36l-.44-.44-.05-.05c0-.13-.17-.27-.36-.36l-.44-.44-.05,0c0-.14-.16-.28-.36-.37l-.48-.48c0-.22-.44-.44-.67-.44a.22.22,0,0,0-.22-.23c-.44-.21-.67-.44-1.11-.66-.23-.23-.67-.44-1.11-.89-.22,0-.66-.22-.89-.22-.44-.22-1.1-.22-1.33-.45a2.15,2.15,0,0,1-1.12-.21H416a1.39,1.39,0,0,1-.89.21c-.66.23-1.1.23-1.33.45-.44,0-.66.22-.89.67a2.34,2.34,0,0,0-1.33.44c-.22.22-.67.45-.88.66a2.36,2.36,0,0,1-1.12.67,3.11,3.11,0,0,1-.67.89c-.22.23-.22.44-.44.44L326.26,201.14a11.89,11.89,0,0,0,1.1,16.35,8.43,8.43,0,0,0,.85.84,6.83,6.83,0,0,0,.85.85,101,101,0,0,0,1.69,1.69,6.83,6.83,0,0,0,.85.85,8.43,8.43,0,0,0,.84.85,7.5,7.5,0,0,0,.85.84,6.83,6.83,0,0,0,.85.85,8.43,8.43,0,0,0,.84.85,12.71,12.71,0,0,0,1.74,1.6,10.88,10.88,0,0,0,7.55,2.66h61.51v8.42a12.14,12.14,0,0,0,4,9.12s0,0,0,0a10.72,10.72,0,0,0,.82.83l0,0c.26.28.53.55.82.81,0,0,0,0,0,0,.26.29.54.56.82.82l0,0c.26.29.53.56.81.82l0,0a10.7,10.7,0,0,0,.83.82l0,0q.39.42.81.81l0,0c.26.29.55.57.83.83l0,0q.39.42.81.81l0,0a10.72,10.72,0,0,0,.82.83l0,0a12.27,12.27,0,0,0,21.26-8.3V229.37h2.22a12.16,12.16,0,0,0,8.39-21.22Zm-43.5-47.57v35.9H376.85Z" style="opacity:0.1"></path><path d="M444.87,208.69a12.23,12.23,0,0,1-12.44,12.22h-2.22v16.88a12.22,12.22,0,1,1-24.43,0V220.91h-70a10.91,10.91,0,0,1-7.56-2.66,11.89,11.89,0,0,1-2-17.11L408.44,99c.22,0,.22-.22.44-.44a2.81,2.81,0,0,0,.67-.89,2.34,2.34,0,0,0,1.11-.66c.23-.23.67-.45.89-.67a2.42,2.42,0,0,1,1.33-.45c.22-.44.45-.66.89-.66.22-.22.67-.22,1.33-.45a1.34,1.34,0,0,0,.89-.22h3.78a2,2,0,0,0,1.11.22c.22.23.89.23,1.33.45.23,0,.67.22.89.22.45.44.89.67,1.11.89.44.22.67.44,1.11.67a.22.22,0,0,1,.22.22c.23,0,.67.22.67.44l.89.89c.22.22.44.67.67.89a6.18,6.18,0,0,1,.89,1.11,1.69,1.69,0,0,0,.44.89,10.1,10.1,0,0,1,.45,1.33c0,.22.21.67.21.89A2.31,2.31,0,0,1,430,105c0,.45.22.67.22,1.11v90.41h2.22A12.37,12.37,0,0,1,444.87,208.69Zm-39.09-67.08-44.21,54.87h44.21Z" style="fill:#38BDF8"></path></g><g id="freepik--Text--inject-68"><path d="M219.34,61.35a12,12,0,0,1,0,16.5,10.68,10.68,0,0,1-7.79,3.49,11,11,0,0,1-8-3.49,12.15,12.15,0,0,1,0-16.5,10.9,10.9,0,0,1,8-3.49A10.57,10.57,0,0,1,219.34,61.35Zm-.43,8.25a8.46,8.46,0,0,0-2.21-5.7,7,7,0,0,0-5.15-2.32,7.11,7.11,0,0,0-5.29,2.32,8.28,8.28,0,0,0-2.21,5.7,8.17,8.17,0,0,0,2.21,5.68,7,7,0,0,0,10.44,0A8.36,8.36,0,0,0,218.91,69.6Z" style="fill:#c7c7c7"></path><path d="M246.73,61.35a12,12,0,0,1,0,16.5,10.68,10.68,0,0,1-7.79,3.49,11,11,0,0,1-8-3.49,12.15,12.15,0,0,1,0-16.5,10.9,10.9,0,0,1,8-3.49A10.57,10.57,0,0,1,246.73,61.35Zm-.43,8.25a8.46,8.46,0,0,0-2.21-5.7,7,7,0,0,0-5.15-2.32,7.11,7.11,0,0,0-5.29,2.32,8.28,8.28,0,0,0-2.21,5.7,8.17,8.17,0,0,0,2.21,5.68,7,7,0,0,0,10.44,0A8.36,8.36,0,0,0,246.3,69.6Z" style="fill:#c7c7c7"></path><path d="M264.08,72.47h-4v7.08a1.81,1.81,0,0,1-3.61,0V60.31a1.78,1.78,0,0,1,1.79-1.79h5.84a7,7,0,1,1,0,13.95Zm-4-3.62h4a3.36,3.36,0,1,0,0-6.71h-4Z" style="fill:#c7c7c7"></path><path d="M274.74,75.67a1.69,1.69,0,0,1,2.38-.23A10.65,10.65,0,0,0,283.34,78a7,7,0,0,0,4.08-1.21,2.91,2.91,0,0,0,1.4-2.34,1.84,1.84,0,0,0-.29-1.05,3.23,3.23,0,0,0-1-1,13,13,0,0,0-4.47-1.53H283a17.43,17.43,0,0,1-4.21-1.27,7,7,0,0,1-3-2.54,5,5,0,0,1-.75-2.68,6,6,0,0,1,2.61-4.76,9.62,9.62,0,0,1,5.64-1.73,12.82,12.82,0,0,1,7.11,2.61,1.68,1.68,0,0,1,.45,2.32,1.64,1.64,0,0,1-2.31.49c-1.66-1.11-3.26-2.09-5.25-2.09a6.23,6.23,0,0,0-3.65,1.11,2.59,2.59,0,0,0-1.24,2,1.56,1.56,0,0,0,.23.92,3,3,0,0,0,.88.84,11.16,11.16,0,0,0,4.07,1.44h.07a19,19,0,0,1,4.5,1.37,7.61,7.61,0,0,1,3.26,2.7,5.33,5.33,0,0,1,.78,2.78,6.3,6.3,0,0,1-2.8,5,10.24,10.24,0,0,1-6,1.86A14,14,0,0,1,275,78.05,1.73,1.73,0,0,1,274.74,75.67Z" style="fill:#c7c7c7"></path><path d="M296.84,73.48V60.31a1.81,1.81,0,0,1,1.8-1.79,1.78,1.78,0,0,1,1.76,1.79V73.48a1.77,1.77,0,0,1-1.76,1.8A1.8,1.8,0,0,1,296.84,73.48Zm1.8,7.86a1.79,1.79,0,0,1-1.8-1.79V78.9a1.82,1.82,0,0,1,1.8-1.8,1.78,1.78,0,0,1,1.76,1.8v.65A1.76,1.76,0,0,1,298.64,81.34Z" style="fill:#c7c7c7"></path></g><g id="freepik--Battery--inject-68"><path d="M214.68,121.9v30h64.84v-30Zm61.53,26.73H218V125.2h58.23Z" style="fill:#263238"></path><rect x="217.98" y="125.2" width="58.23" height="23.43" style="fill:#fff"></rect><rect x="221.1" y="127.63" width="4.63" height="18.56" style="fill:#455a64"></rect><rect x="279.55" y="128.88" width="5.77" height="16.07" style="fill:#263238"></rect><polygon points="214.68 151.93 214.68 159.48 224.13 151.93 214.68 151.93" style="fill:#263238"></polygon></g><g id="freepik--Character--inject-68"><path d="M268,463.44c-2.7.84-81.37-.85-84.24-2.77-.37-.24.65-8.66.28-19.8-.47-14.57,15.61-55.46,15.61-55.46l49.23,1-15.27,49.88s29,13.74,32,16.19S270.7,462.61,268,463.44Z" style="fill:#ad6359"></path><path d="M268,463.44c-2.69.84-81.37-.86-84.24-2.78-.35-.21-.27-7.58,0-17.64,14.26,2.39,66,10.22,69.94,7.89,2.77-1.63.32-4.17-1.95-5.88,6.5,3.24,12.57,6.36,13.82,7.41C268.51,454.87,270.7,462.62,268,463.44Z" style="fill:#263238"></path><path d="M237.75,432.18l-57.62-.41s29.4-90,26.76-96.95-44.7-21.61-57.74-33c-20.65-18-2.28-49.89-2.28-49.89l46.77,0s-3.2,14.38,3.05,24.51c0,0,52.06,19.41,61.13,37.13C267.51,332.47,237.75,432.18,237.75,432.18Z" style="fill:#263238"></path><path d="M187.59,420.15a26.85,26.85,0,0,1,4.57-.19l4.7.05,9.56.14c6.38.11,12.74.26,19.11.54,3.59.16,7.17.46,10.75.74a.11.11,0,0,1,0,.22c-12.77.33-25.5-.11-38.26-.6l-5.21-.21a30.42,30.42,0,0,1-5.22-.46C187.46,420.36,187.48,420.17,187.59,420.15Z" style="fill:#37474f"></path><path d="M256.24,356.62,207,335.17a1.2,1.2,0,0,0-.08-.35c-2.7-7.12-44.7-21.61-57.75-33-20.63-18.05-2.27-49.89-2.27-49.89l46.76,0s-3.18,14.38,3.06,24.51c0,0,52.06,19.41,61.14,37.14C261.29,320.31,259.71,337.43,256.24,356.62Z" style="fill:#37474f"></path><path d="M195.18,414.89c7.44-23.46,15.25-47,19.53-71.3.44-3.85,1.37-8.26-.07-11.91a13.85,13.85,0,0,0-3.93-4.41c-15-10.79-33.17-16.17-48.68-26.46-3.4-2.33-6.79-4.83-9.26-8.25-6.6-10.77-5.3-24.59-.83-35.9a44.56,44.56,0,0,0-1.85,5.88c-2.39,9.76-2.32,21,3.19,29.66,2.42,3.26,5.79,5.71,9.17,8C176.32,309,192,314.59,206.2,323c3.68,2.38,7.82,4.8,9.64,9a16.88,16.88,0,0,1,.44,5.53c-.77,10.31-3.54,20.34-6.17,30.28-4.39,15.87-9.47,31.53-14.93,47.06Z" style="fill:#37474f"></path><polygon points="187.65 315.07 189.76 331 215.85 462.17 223.32 462.17 202.72 331 201.05 315.07 187.65 315.07" style="fill:#38BDF8"></polygon><polygon points="187.65 315.07 189.76 331 215.85 462.17 223.32 462.17 202.72 331 201.05 315.07 187.65 315.07" style="opacity:0.30000000000000004"></polygon><polygon points="117 462.17 124.47 462.17 150.56 331 152.68 315.07 139.28 315.07 137.6 331 117 462.17" style="fill:#38BDF8"></polygon><polygon points="117 462.17 124.47 462.17 150.56 331 152.68 315.07 139.28 315.07 137.6 331 117 462.17" style="opacity:0.30000000000000004"></polygon><rect x="129.15" y="420.75" width="83.26" height="3.74" transform="translate(341.56 845.25) rotate(180)" style="fill:#38BDF8"></rect><rect x="129.15" y="420.75" width="83.26" height="3.74" transform="translate(341.56 845.25) rotate(180)" style="opacity:0.30000000000000004"></rect><polygon points="202.72 330.44 189.76 330.44 187.65 315.07 201.05 315.07 202.72 330.44" style="opacity:0.30000000000000004"></polygon><polygon points="137.6 330.44 150.56 330.44 152.68 315.07 139.28 315.07 137.6 330.44" style="opacity:0.30000000000000004"></polygon><rect x="130.55" y="304.49" width="79.22" height="15.4" transform="translate(340.31 624.37) rotate(180)" style="fill:#38BDF8"></rect><rect x="130.55" y="304.49" width="79.22" height="15.4" transform="translate(340.31 624.37) rotate(180)" style="opacity:0.30000000000000004"></rect><path d="M389.33,463.1c-2.68.89-81.21.44-84.1-1.42-.37-.23.21-8.26-.05-19-.09-3.52-20.55-55.79-20.55-55.79l49.14.16,20.81,49.45s29.19,13.26,32.16,15.65S392,462.23,389.33,463.1Z" style="fill:#ad6359"></path><path d="M389.33,463.1c-2.67.88-81.21.44-84.1-1.43-.35-.21-.39-7.56-.27-17.6,14.27,2.16,66,9.14,69.91,6.75,2.73-1.66.25-4.16-2-5.83,6.54,3.13,12.65,6.15,13.91,7.17C389.69,454.54,392,462.23,389.33,463.1Z" style="fill:#263238"></path><path d="M356.24,427.14,296.6,428s-49.18-89.43-52.93-93.19c-8.51-8.51-82.22-19.7-100.58-37.94-19.44-19.32-2-44.93-2-44.93H195s-.58,11.75,2.13,12.59c29.29,9.11,78.31,30.18,91,41.38C310.87,326,356.24,427.14,356.24,427.14Z" style="fill:#263238"></path><path d="M298.25,415.73a25.4,25.4,0,0,1,4.44-.35c1.53,0,3.05-.09,4.58-.12l9.32-.21c6.22-.12,12.43-.19,18.65-.14,3.5,0,7,.19,10.49.34a.11.11,0,0,1,0,.22c-12.43.79-24.85.82-37.3.79-1.69,0-3.39,0-5.08,0a28.16,28.16,0,0,1-5.11-.27C298.13,415.94,298.14,415.76,298.25,415.73Z" style="fill:#37474f"></path><path d="M146.4,254.49c-5.54,10.86-7.67,25.43.47,35.54,9.29,9.79,34.4,17,47.68,21.34,9.62,3,19.31,5.66,29,8.31,6,1.84,18,4.51,23.64,7a22.65,22.65,0,0,1,3.75,4.44c2.92,4.13,5.61,8.39,8.28,12.66s5.28,8.59,7.85,12.91c10.31,17.31,20.26,34.81,30.06,52.41-10.11-17.42-20.29-34.79-30.72-52-5.27-8.57-10.44-17.23-16.21-25.44a23,23,0,0,0-3.51-4.19c-5.42-2.35-17.58-5.1-23.4-6.85-9.71-2.67-19.4-5.41-29-8.4-13.49-4.47-38.38-11.72-47.84-21.85-8.17-10.3-5.8-25,0-35.9Z" style="fill:#37474f"></path><path d="M204.87,197.41c13.62-.28,39.6,5.08,51.31,10.22,7.95,3.5,10.14,8.9,9.54,12.15-1.63,9-35.66,2.87-36,1.53-.26-1-13.86-4.37-28.57-12.57C194.09,204.81,199,197.53,204.87,197.41Z" style="fill:#455a64"></path><path d="M250,209.25l.89-2.1-2.06.67-1.33-1.62.31,2.05-2.16,1.29,2.29.37.4,2,1.14-1.83,1.6.5Zm-27.33-5.63.47-2-1.44,1.49-2.33-.93,1.11,2-1.34,1.54,2.15-.23.58,1.58.39-1.68,2.21-.56Zm41.13,11.8-2.37-.11-1.33-2.83-1.21,2.74-2.89-.11,2.4,1.56-.83,2.47,2.4-1.44,2.7,1.76-.86-2.86Zm-30.28,1.05.77-2.18-1.89,1.44-2.85-1.34.83,2.88L228.12,219l2.84-.33.93,2.42.94-2.63,3.19-.37Zm19.43,7-.14-5-2.72,4.08-3.24-1,2.24,2.5-.28.45c2,.09,4.08.11,6,0l.81-.23Z" style="fill:#37474f"></path><path d="M220.48,217.59a145.94,145.94,0,0,1-19.33-8.85c-7.06-3.92-2.14-11.21,3.72-11.33.93,0,1.9,0,2.92,0Z" style="fill:#37474f"></path><path d="M265.06,220.29c-2.46,5.94-11.5,8.7-34.86,18.89-3.23,1.41-18.41-15-16.08-18,2.82-3.57,21.33-11.88,22.64-12.26C247.78,205.78,266.72,216.26,265.06,220.29Z" style="fill:#ad6359"></path><path d="M216.77,219.18s-9,5.91-12.69,10.46a37.91,37.91,0,0,0-7.38,16.55c-1.2,6.51.41,23.07,5.26,23.43,4.39.34,1.89-16.5,1.89-16.5s-.29,17.59,5.07,17,1.35-20,1.35-20,.11,18.09,5.55,16.62c4.1-1.1,1.46-18.86,1.46-18.86s.2,15.54,4.47,14.58c4.73-1,3.31-17.6,3.31-17.6,10.46-4.25,13.69-10.55,15.46-15.31C241,228.46,216.77,219.18,216.77,219.18Z" style="fill:#ad6359"></path><path d="M203.56,247c-.11,2.06-.23,4.15-.16,6.22s.23,4.13.49,6.18a34.85,34.85,0,0,0,1.81,7.89c-1.27-4.64-1.65-12-1.73-14.11s-.25-4.13-.33-6.19C203.64,247,203.56,247,203.56,247Z" style="fill:#263238"></path><path d="M211,246.62c0,2.64-.14,5.26-.05,7.91s.41,5.12.68,7.74c0,.2.12.12.11-.08-.17-2.63-.12-5.07-.26-7.7s-.37-5.25-.42-7.88C211.08,246.57,211,246.58,211,246.62Z" style="fill:#263238"></path><path d="M217.36,245.12a59.19,59.19,0,0,0,.85,12.1c0,.2.15.08.13-.12-.36-4-.67-7.17-.84-12A.07.07,0,0,0,217.36,245.12Z" style="fill:#263238"></path><path d="M216.73,217.06l26.67,19.08s20.24-9.62,22.2-15.87c1.28-4.12-18-15.45-29.9-11Z" style="fill:#455a64"></path><path d="M255.63,224.28l-2.65-.83-.14-5-2.72,4.08-3.24-1,2.24,2.5-1.68,2.55,3.15-.89,2.53,2.81L253,225Zm-22.08-7.81.77-2.18-1.89,1.44-2.85-1.34.83,2.88L228.12,219l2.84-.33.93,2.42.94-2.63,3.19-.37Zm29.33-.5-.79-.63h0l-.62,0-.3-.62h0c-.49-.34-1-.68-1.56-1l-.68,1.55-2.89-.11,2.4,1.56-.83,2.47,2.4-1.44,2.7,1.76-.86-2.86Zm-12.57-6.38c-1.1-.32-2.22-.6-3.36-.82l-1.27.77,2.29.37.4,2,1.14-1.83,1.6.5Z" style="fill:#37474f"></path><path d="M251.23,209.9a21.8,21.8,0,0,0-15.55-.64c-.06,0,0,.12,0,.11,5.34-1.34,13.2-.14,15.5.63C251.26,210,251.29,209.92,251.23,209.9Z" style="fill:#263238"></path><path d="M248.37,230.86c-2.82-2.26-5.76-4.36-8.71-6.46s-5.89-4.19-8.88-6.22c-1.7-1.14-3.39-2.29-5.12-3.38,0,0-.1,0-.06.08,2.82,2.25,5.75,4.37,8.67,6.48s5.89,4.2,8.87,6.26q2.52,1.74,5.11,3.38C248.34,231.05,248.45,230.92,248.37,230.86Z" style="fill:#263238"></path><path d="M216.62,216.76a30.84,30.84,0,0,1,3.81-1.8c1.29-.56,2.59-1.09,3.9-1.6,2.6-1,8-3.51,13-4.6.06,0-.17.31-.22.32-2.4.4-18.65,7.55-20,8a1,1,0,0,1,.21.25.08.08,0,0,1-.09.13c-.2-.08-.35-.2-.55-.29A.2.2,0,0,1,216.62,216.76Z" style="fill:#263238"></path><path d="M227.15,212.91a4.26,4.26,0,0,0,3.2,1.07c.35-.06.7-.2,1.05-.26A2.57,2.57,0,0,1,233,214a10.66,10.66,0,0,0,1.74.64c1.84.45,4,.29,5.23-1.29a6.11,6.11,0,0,0,7.65-.12,5.38,5.38,0,0,0,.77-.81c.31-.41.53-1,1-1.25a5,5,0,0,1,1.64-.27,6.15,6.15,0,0,0,1.27-.29A2.36,2.36,0,0,0,254,208a3.89,3.89,0,0,0,3.55-2.38,6.72,6.72,0,0,0,.2-5.6,4.63,4.63,0,0,0,2-6.18,4.11,4.11,0,0,0,.44-6.15,6,6,0,0,0,0-5.69,2.67,2.67,0,0,1-.31-1.13,4.58,4.58,0,0,0,.56-3.88,3.47,3.47,0,0,0-3.31-2.34,6.9,6.9,0,0,0-1.3-3,4.69,4.69,0,0,0-4.19-2,6.59,6.59,0,0,0-8.82-4.39,4.78,4.78,0,0,0-3.79-3.64c-2.21-.49-4.43.41-6.34,1.49a3.33,3.33,0,0,0-3.79-2,3.67,3.67,0,0,0-2.59,2.38,5.12,5.12,0,0,0-3.85.82,3.07,3.07,0,0,0-1.13,3.11,4.56,4.56,0,0,0-4.26,6.38,5.42,5.42,0,0,0-6,7.94,4.86,4.86,0,0,0-3.88,3.63,7.13,7.13,0,0,0,1.73,6.18,4.83,4.83,0,0,0-1.56,5.14,6.23,6.23,0,0,0,3.35,3.71,4.59,4.59,0,0,1-4.13-3,5.11,5.11,0,0,1,2.28-5.89s0,0,0,0a5,5,0,0,0-2.65,6.07,5.21,5.21,0,0,0,5.43,3.33,5.67,5.67,0,0,0,5.53,8.66C217.82,214.28,223.74,217,227.15,212.91Zm32.68-32.76a.81.81,0,0,0,0-.16,5.14,5.14,0,0,0,0-1.24,4.8,4.8,0,0,0-1.12-2.54,4.75,4.75,0,0,0-1-.88,6.89,6.89,0,0,0-.66-.35s0-.08,0-.19a3.64,3.64,0,0,1,3,2.94A4.49,4.49,0,0,1,259.83,180.15Zm-33.14-16.7h0a3.08,3.08,0,0,1,2.2-2.13c1.71-.4,2.77.56,3.55,1.86l-.1,0a3.53,3.53,0,0,0-3.9-1A4,4,0,0,0,226.69,163.45Zm-8.52,47.89a6.36,6.36,0,0,0,8.75,1.4l0,0C223.66,215.94,220.16,214.42,218.17,211.34Z" style="fill:#263238"></path><path d="M205.64,197.36c-1,.78-5.47,9.4-2.81,14.24.87,1.58,9.68-2.77,9.68-2.77l.72-.17,10.14-2.41,1.64-14.1.15-2s-2.73.85-6.11,1.93l-.49.16-.55.16-1.54.49c-.39.13-.77.25-1.18.4l-1.21.43A66.7,66.7,0,0,0,205.64,197.36Z" style="fill:#ad6359"></path><path d="M219.05,192.08a20.9,20.9,0,0,0-5.82,16.58l10.14-2.41,1.64-14.1.15-2S222.43,191,219.05,192.08Z" style="fill:#263238"></path><path d="M243.09,214.38c-15.87,9.07-23.11.58-25.06-2.85-1.77-3.11-7.42-13.92,7.43-24.58s24.09-6.15,28.53.75S259,205.31,243.09,214.38Z" style="fill:#ad6359"></path><path d="M223.89,188.84a7.45,7.45,0,0,0,7.29,1,19.5,19.5,0,0,0,9.25,4.23c-.39.06-3.18.48-4.62.65,7.05,9.29,16.48,8.54,16.48,8.54A19.58,19.58,0,0,1,248,211s6.33-3.07,8.92-8.41a11.34,11.34,0,0,0-.5-11.45,16.21,16.21,0,0,0-11.44-12C234.42,176.14,223.89,188.84,223.89,188.84Z" style="fill:#263238"></path><path d="M241.41,201.68a21.36,21.36,0,0,1-4.56-4.29s0,0,0,0a17.94,17.94,0,0,0,8.32,5.25,17,17,0,0,0,4.2.67,11.88,11.88,0,0,0,4.59-.59c.1,0,.17.12.06.16a13.75,13.75,0,0,1-4.45,1.21,12.64,12.64,0,0,1-4.53-.58,14.29,14.29,0,0,1-3.65-1.81" style="fill:#263238"></path><path d="M225.68,190.17s3.51-6,1.13-7.77-8.63,4.43-8.38,7.67a3.09,3.09,0,0,0,3.25,3.06Z" style="fill:#ad6359"></path><path d="M225.06,184.21s-.08,0-.08,0c.11,2.3-1.21,4.15-2.74,5.72a1.7,1.7,0,0,0-.65-2.51c-.06,0-.12.05-.08.1a1.91,1.91,0,0,1,.28,2.18,10,10,0,0,1-1.12,1.62c-.13.17.11.44.28.28l0,0C223.47,190.49,226,187,225.06,184.21Z" style="fill:#263238"></path><path d="M243.85,210.78c0-.43,0-.83-.08-1.26a2.1,2.1,0,0,0-.33-1.28.65.65,0,0,0-.79-.12,1.64,1.64,0,0,0-.61,1.53,2.36,2.36,0,0,0,.62,1.6A.7.7,0,0,0,243.85,210.78Z" style="fill:#263238"></path><path d="M236.65,199a10.68,10.68,0,0,1,1,.72c.4.28.75.46.93.94a.64.64,0,0,1-.3.73,1.6,1.6,0,0,1-1.62-.26,2.36,2.36,0,0,1-1.07-1.35A.7.7,0,0,1,236.65,199Z" style="fill:#263238"></path><path d="M224.28,206.21a1.9,1.9,0,0,0-.3,1.24,3.18,3.18,0,0,0,.78,1.14,0,0,0,0,1,0,.08,1.71,1.71,0,0,1-1.21-1.24,1.35,1.35,0,0,1,.67-1.32C224.24,206.07,224.3,206.15,224.28,206.21Z" style="fill:#263238"></path><path d="M227.72,207.47a11.41,11.41,0,0,1,2.34,4.1c.09.11.34.34.47.3h0l2.24-1.37c0,.38.21,2.31.62,2a63.11,63.11,0,0,0,10.18-7.69c.1-.09,0-.26-.14-.18-3.38,2-6.38,4.63-9.74,6.72a7.62,7.62,0,0,0-.46-2c-.1-.1-2.3,1.57-2.69,1.74a7,7,0,0,0-2.7-3.89C227.34,206.84,227.18,206.87,227.72,207.47Z" style="fill:#263238"></path><path d="M227.31,210.27c.42.46,2.9.38,2.65-.59a4.77,4.77,0,0,0-3.43-3c-1.47-.17.55,2.13.55,2.64S227,209.94,227.31,210.27Z" style="fill:#263238"></path><path d="M227.08,209.31v.25a1.71,1.71,0,0,0,.8-2.4,3.22,3.22,0,0,0-1.34-.5C225.06,206.5,227.08,208.8,227.08,209.31Z" style="fill:#ff9abb"></path><path d="M235,203.11s-.1-.05-.15,0c-1,.76-2.3,1.44-3.29.75,0,0-.08,0-.05,0C232.46,204.92,234.16,204,235,203.11Z" style="fill:#263238"></path><path d="M234,200.74a3.35,3.35,0,0,0-.57.42,2.13,2.13,0,0,1-.56,0,1,1,0,0,1-.85-.58c-.28-.72.27-1.37.93-1.77.05,0,.09,0,.07,0-.21.47-.4,1-.13,1.34s.73.37,1.09.53a0,0,0,0,1,0,0Z" style="fill:#263238"></path><path d="M233.9,203.92a2,2,0,0,1-1,.17,1.38,1.38,0,0,1-.94-.58,1.26,1.26,0,0,1-.13-1.11,2.31,2.31,0,0,1,.57-.83,5.71,5.71,0,0,1,.48-.38,2.81,2.81,0,0,1,1.16-.45,3.87,3.87,0,0,0-.72.54,6.37,6.37,0,0,0-.57.6c-.34.45-.54,1-.28,1.29a1.09,1.09,0,0,0,1.28.3,9.23,9.23,0,0,0,1.61-.68A4,4,0,0,1,233.9,203.92Z" style="fill:#263238"></path><path d="M239,209.52s0,.11-.05.14c-1.09.62-2.24,1.53-2,2.72,0,0-.05.06-.07,0C236.33,211.12,237.86,209.93,239,209.52Z" style="fill:#263238"></path><path d="M240.77,211.36a3.29,3.29,0,0,1-.6.36,1.8,1.8,0,0,0-.25.5,1,1,0,0,0,.19,1c.55.54,1.36.29,2-.15.05,0,.05-.08,0-.08-.51,0-1.06,0-1.28-.42s-.05-.81-.05-1.2c0,0,0,0,0,0Z" style="fill:#263238"></path><path d="M237.81,210.2a2,2,0,0,0-.56.85,1.42,1.42,0,0,0,.16,1.1,1.24,1.24,0,0,0,1,.56,2.16,2.16,0,0,0,1-.19,3.39,3.39,0,0,0,.53-.29,2.77,2.77,0,0,0,.89-.88,4.53,4.53,0,0,1-.8.45,5.89,5.89,0,0,1-.77.27c-.55.15-1.09.12-1.3-.25a1.08,1.08,0,0,1,.24-1.29,9.19,9.19,0,0,1,1.27-1.21A4,4,0,0,0,237.81,210.2Z" style="fill:#263238"></path><path d="M233.6,219.74a3,3,0,1,1,4.85,3.61,3.31,3.31,0,0,1,.6,1.8,3.42,3.42,0,0,1-6.46,1.71l-.13,0a3,3,0,0,1-2.08-5.63,2.84,2.84,0,0,1,1.22-.38" style="fill:#fff"></path><path d="M233.6,219.74c2.5-3.85,7.89.24,5,3.76l0-.28A3.64,3.64,0,1,1,232.4,227l.24.12c-4.41.86-5.56-5.7-1-6.2-4.16.64-3,6.77,1.11,5.73a3.2,3.2,0,1,0,5.46-3.28c2.9-3.19-2.09-7.05-4.57-3.59Z" style="fill:#263238"></path><path d="M230,219.52a30.37,30.37,0,0,1-1.7-5.36,32.42,32.42,0,0,1,1.7,5.36Z" style="fill:#263238"></path><path d="M232.6,217.89a25.92,25.92,0,0,1-2.65-4.44,26.18,26.18,0,0,1,2.65,4.44Z" style="fill:#263238"></path><path d="M231.77,219.76a31.71,31.71,0,0,1-2.38-5.16,32.57,32.57,0,0,1,2.38,5.16Z" style="fill:#263238"></path><path d="M200.43,265.06l4.14-21.34s8.14-2.55,10.24-9.64c1.63-5.5,1.16-23.13-.32-28.09-2.53-8.43-6.09-10.42-11.22-10.32-22.8.48-53.81,34-70.35,59.82Z" style="fill:#455a64"></path><path d="M166,250.45l-2.67-.84-.14-5-2.71,4.08-3.23-1,2.24,2.5-1.69,2.54,3.16-.89,2.53,2.81-.11-3.5Zm35.18,10.29-3.24-1,2.24,2.5-1.68,2.55,2.05-.59.69-3.55Zm-17.06-48.65-2.65-.84-.14-4.95-2.72,4.08-3.24-1,2.24,2.5L176,214.41l3.15-.9,2.53,2.82-.1-3.5ZM215.41,219l-2.73.59-2.59-4.22-.32,4.88-3.31.74,3.19,1-.2,3,2.3-2.34,3.59,1.18-1.83-3Zm-60.6,22,.77-2.18-1.89,1.44-2.84-1.34.82,2.89-2.29,1.75,2.84-.32.93,2.42.94-2.64,3.2-.37Zm48.44-36,.77-2.18-1.89,1.44L199.29,203l.82,2.88-2.29,1.75,2.83-.33.94,2.43.94-2.63,3.19-.37ZM185.1,240l-2.38-.09L181.39,237l-1.21,2.75-2.89-.12,2.4,1.56-.82,2.47,2.39-1.43L184,244l-.86-2.85Zm23.4.43.57,1c.23-.16.48-.33.73-.52Zm-38.38-11.5.89-2.1-2.07.67-1.32-1.62.31,2.05-2.16,1.28,2.29.37.41,2,1.13-1.83,1.61.5Z" style="fill:#37474f"></path><path d="M214.13,208.83c2.37,13.48,3,29.43,4.91,47.85,2.15,20.54,2.64,41,3,45.46.49,5.69-28.91-4.42-28.66-8.33.16-2.51.88-21.69,1.58-39.19s4.93-35.57,7.35-47.26C205.12,193.87,212.38,198.9,214.13,208.83Z" style="fill:#ad6359"></path><path d="M221.59,293s.29,2,.89,11.88c.41,6.82-2.94,23.71-20.38,31.78-6.68,3.1-11.77-.24-5.4-4.69,4.49-3.13,7.87-4.91,9.05-6.34,0,0-8.36-.53-10.92-4.66a90,90,0,0,1-5.91-11.25,19.39,19.39,0,0,1,2-1.3s-1.61-9.09,2.47-14.61Z" style="fill:#ad6359"></path><path d="M221.84,311.46c-2.19,2.83-6.93,8.77-12.5,12.27-6.18,3.9-19.14,9.73-22,5.14-2.07-3.37,2.68-6,2.68-6s-5.87,1.28-7.07-2.17c-1.1-3.15,2.7-5,2.7-5s-3.7.17-4.17-3.06c-.58-3.89,7.26-3.6,10.08-8.05C192.22,303.58,221.84,311.46,221.84,311.46Z" style="fill:#ad6359"></path><path d="M206.31,316.52a29.09,29.09,0,0,1-16.13,6.39c-.15,0-.23-.1-.1-.14a71.37,71.37,0,0,0,16.2-6.31S206.34,316.49,206.31,316.52Z" style="fill:#263238"></path><path d="M202.2,310.39c-2.36,1.79-9.78,5.42-16.48,5.42-.15,0-.23-.11-.09-.14a77.12,77.12,0,0,0,16.54-5.34S202.23,310.37,202.2,310.39Z" style="fill:#263238"></path><path d="M223.81,292.92l-33.25-1.33s1.37-31.64,2.17-42.44,7.1-35.91,9.87-44.89,9.06-6.86,11.64,3,4.71,43.35,5,44.38S223.81,292.92,223.81,292.92Z" style="fill:#455a64"></path><path d="M206.73,262.46l-2.65-.84-.15-5-2.71,4.08-3.24-1,2.24,2.5-1.68,2.55,3.15-.89,2.53,2.8-.1-3.49ZM215.41,219l-2.73.59-2.59-4.22-.32,4.88-3.31.74,3.19,1-.2,3,2.3-2.34,3.59,1.18-1.83-3Zm-12.16-14,.77-2.18-1.29,1c0,.13-.09.27-.13.41-.39,1.24-.85,2.81-1.34,4.6l.33.85.94-2.63,3.19-.37Zm12.47,66.57-2.37-.09L212,268.68l-1.21,2.75-2.88-.11,2.4,1.55-.83,2.47,2.4-1.43,2.7,1.76-.86-2.86Zm-3.92-29.75.47-2-1.44,1.5-2.33-.93,1.11,2L208.27,244l2.15-.23.58,1.58.39-1.68,2.2-.56ZM198.53,288l.9-2.09-2.08.67L196,284.94l.3,2.05-2.15,1.28,2.29.38.4,2,1.14-1.83,1.6.5Z" style="fill:#37474f"></path><path d="M207.08,285.88c2.21.08,4.41.1,6.62.12,1.05,0,2.11,0,3.17,0s2.31,0,3.44-.06a.07.07,0,0,0,0-.13c-1.13-.18-2.3-.18-3.43-.28s-2.11-.14-3.17-.19c-2.2-.12-4.4-.23-6.6-.3-4.41-.13-8.82-.13-13.23-.08a.09.09,0,0,0,0,.17C198.28,285.46,202.67,285.74,207.08,285.88Z" style="fill:#263238"></path><path d="M191.62,268.78c.32-9,.21-18,1.49-26.88a249.06,249.06,0,0,1,6.32-26.16c-1.58,7.78-4.05,18.62-5.34,26.32-1.37,8.84-1.35,17.84-2.47,26.72Z" style="fill:#263238"></path><path d="M196.68,226.28a21.25,21.25,0,0,1,.22-6.61,21.56,21.56,0,0,1-.22,6.61Z" style="fill:#263238"></path></g><g id="freepik--Backpack--inject-68"><path d="M131.49,368.45c-.62-.56,2.24-9.23,4.58-10.73s16.78-1.22,18.38,1.6-.91,11.57-1.95,11.71-3.8-.2-4.31-.82,1.21-6.12.44-7.14c-1-1.33-9.21-1.44-10-.61s-1.81,5.72-2,6S132.48,369.34,131.49,368.45Z" style="fill:#38BDF8"></path><path d="M171.46,448c-3.22,6-14.09,13.64-20.49,14.64s-48.68,5.83-55.3-3.17c-6-8.18,7-65.74,19.42-83.84a19.29,19.29,0,0,1,3.33-3.89l.26-.21c11.6-9.18,34.24-3.74,37.08-2.89,4.42,1.34,10.6,5.32,13.63,13.86S174.69,442.05,171.46,448Z" style="fill:#455a64"></path><path d="M147.54,443.82c-.74,4.24-7.62,14.12-15.56,16.48s-36.31-.79-42.57-6.49A6.34,6.34,0,0,1,88,450.09c-1.87-12.8,6.84-51.35,16.1-62.92a10.65,10.65,0,0,1,3-2.75,25.73,25.73,0,0,1,4.19-1.77,48.11,48.11,0,0,1,24.8-.63c4.93,1.27,8.94,3.45,10.73,6.56C151.4,396.46,148.28,439.6,147.54,443.82Z" style="fill:#38BDF8"></path><path d="M147.54,443.82c-.74,4.24-7.62,14.12-15.56,16.48s-36.31-.79-42.57-6.49A6.34,6.34,0,0,1,88,450.09a38.69,38.69,0,0,0,16.5,5.47,70.53,70.53,0,0,0,12.75.21c4.21-.29,8.53-1.11,12-3.68,6.61-4.86,9.06-14.3,10.1-22.22,1.13-8.64.74-17.55.16-26.22A103.66,103.66,0,0,0,136.1,382c4.93,1.27,8.94,3.45,10.73,6.56C151.4,396.46,148.28,439.6,147.54,443.82Z" style="opacity:0.1"></path><path d="M142.55,426.69l-1.93-.14c.66-8.93,1.42-33.14-2.92-37.92S116.62,383,109.6,385a33,33,0,0,0-5.52,2.15,10.43,10.43,0,0,1,3-2.76,24.65,24.65,0,0,1,4.19-1.77c8.51-1.53,23.44-.16,27.83,4.68C144.92,393.7,142.64,425.35,142.55,426.69Z" style="fill:#263238"></path><path d="M165.5,419.45l-1.94,0c-.63-36-2.31-37.34-9.37-43l-.24-.2c-6.87-5.53-23.35-5.12-29.81-4.08a23.39,23.39,0,0,0-9,3.48,19.29,19.29,0,0,1,3.33-3.89,26.3,26.3,0,0,1,5.4-1.5c4.54-.73,23.16-2.11,31.34,4.49l.24.19C162.85,380.94,164.85,382.56,165.5,419.45Z" style="fill:#263238"></path><path d="M176.65,447c-1.14,4.67-12.25,13.84-17.69,15.76-1.09.4-10.25,2.11-10.61-1.58,0-.24,0-.49-.06-.74-.62-9.64,3.7-30.47,4.71-33.26,1.2-3.3,11.62-9.41,17.8-10.6a6.71,6.71,0,0,1,3.32,0C178.61,418.23,177.36,444.08,176.65,447Z" style="fill:#37474f"></path></g></svg>